<svg width="67" height="49" viewBox="0 0 67 49" fill="none" xmlns="http://www.w3.org/2000/svg">
<g filter="url(#filter0_d_1_416)">
<rect x="4" width="59" height="41" rx="5" fill="#DDFFF8"/>
</g>
<path d="M53.4446 20.5448V28.0502C53.1782 28.6554 52.3593 28.6148 51.7536 28.5475C51.0405 28.4685 51.1447 27.8802 50.9896 27.4272C49.645 23.503 43.797 23.4321 42.537 27.1449C42.3584 27.6718 42.4399 28.4648 41.6962 28.5468C41.1955 28.6022 40.1792 28.6458 40.024 28.0672L40.0624 13.4104C40.2638 13.0918 40.484 12.9987 40.8664 12.9647C42.1875 12.848 44.956 12.8487 46.2779 12.9647C46.5082 12.9847 46.6524 13.0128 46.8499 13.1332L53.4454 20.5433L53.4446 20.5448ZM46.2865 14.6925C46.1141 14.575 45.9738 14.479 45.7513 14.4538C44.9826 14.3659 43.0824 14.3836 42.2925 14.4524C41.7166 14.5026 41.5505 14.8285 41.505 15.3384C41.429 16.1898 41.4282 17.7498 41.505 18.6004C41.5458 19.0535 41.6954 19.4156 42.2189 19.4843C44.3706 19.3402 46.7864 19.6698 48.906 19.4858C49.5478 19.4304 49.7774 18.936 49.5306 18.395L46.2865 14.6925Z" fill="#0F5045"/>
<path d="M27.4936 28.3799C27.2734 28.1751 27.0274 26.9639 26.7555 26.4909C25.0504 23.5201 20.0096 23.8135 18.7566 27.0216C18.527 27.6091 18.6171 28.4641 17.821 28.5476C17.3673 28.5949 16.0791 28.6053 15.6387 28.5491C15.2508 28.4996 15.004 28.1678 15.0001 27.8064V9.81513C14.9954 9.4774 15.1756 9.22466 15.4734 9.0569L37.6435 9C37.9702 9.00222 38.2445 9.16111 38.3863 9.43232L38.3706 28.1744C38.2061 28.4405 38.036 28.5225 37.7179 28.5498C34.6188 28.8174 31.0942 28.3392 27.9497 28.5513C27.7859 28.5587 27.608 28.4878 27.4921 28.3806L27.4936 28.3799Z" fill="#0F5045"/>
<path d="M46.4463 25.806C50.7591 25.4572 51.1901 31.6324 47.0238 31.9435C42.8574 32.2546 42.1875 26.1496 46.4463 25.806ZM46.0372 29.5136C46.9023 30.3287 48.3238 29.0776 47.367 28.224C46.4102 27.3705 45.1988 28.7221 46.0372 29.5136Z" fill="#0F5045"/>
<path d="M25.1891 31.0698C21.9372 34.0776 17.2827 29.056 20.8981 26.4214C24.0936 24.0928 28.05 28.4234 25.1891 31.0698ZM22.6424 27.9962C21.496 28.2172 21.8008 30.0729 23.2074 29.7322C24.2198 29.4876 23.9729 27.7398 22.6424 27.9962Z" fill="#0F5045"/>
<defs>
<filter id="filter0_d_1_416" x="0" y="0" width="67" height="49" filterUnits="userSpaceOnUse" color-interpolation-filters="sRGB">
<feFlood flood-opacity="0" result="BackgroundImageFix"/>
<feColorMatrix in="SourceAlpha" type="matrix" values="0 0 0 0 0 0 0 0 0 0 0 0 0 0 0 0 0 0 127 0" result="hardAlpha"/>
<feOffset dy="4"/>
<feGaussianBlur stdDeviation="2"/>
<feComposite in2="hardAlpha" operator="out"/>
<feColorMatrix type="matrix" values="0 0 0 0 0 0 0 0 0 0 0 0 0 0 0 0 0 0 0.25 0"/>
<feBlend mode="normal" in2="BackgroundImageFix" result="effect1_dropShadow_1_416"/>
<feBlend mode="normal" in="SourceGraphic" in2="effect1_dropShadow_1_416" result="shape"/>
</filter>
</defs>
</svg>
