<svg width="67" height="49" viewBox="0 0 67 49" fill="none" xmlns="http://www.w3.org/2000/svg">
<g filter="url(#filter0_d_1_402)">
<rect x="4" width="59" height="41" rx="5" fill="#DDFFF8"/>
</g>
<path d="M26.4048 11.6807V28.0908C26.4048 28.3025 26.7622 28.4505 26.9542 28.4736C28.5225 28.661 30.4412 28.3279 32.0487 28.476C32.2292 28.5384 32.5958 28.1082 32.5958 28.0052V11.6807H39.8462L39.9317 11.8507C39.7849 11.986 39.6542 12.1398 39.5096 12.2774C38.5913 13.1437 35.7462 15.37 35.294 16.2883C34.0334 18.8535 36.7015 21.4257 39.2135 20.0378C39.8716 19.6747 40.266 19.0143 40.9067 18.6361V32.163C40.9067 32.3816 40.2822 33.0119 40.0115 33.0489C33.1625 33.2582 26.2707 33.0755 19.4054 33.1414C18.6202 33.1067 18.0141 32.4348 18.006 31.6564V13.1634C17.932 12.651 18.5542 11.6818 19.0689 11.6818H26.4048V11.6807Z" fill="#0F5045"/>
<path d="M50.0654 14.565C48.4531 14.8172 46.93 15.1849 45.275 15.0728C44.7615 15.0381 43.6917 14.7235 43.2765 14.8576L38.8145 18.8755C37.4209 19.9881 35.5253 18.399 36.3661 16.8504C36.5419 16.5265 36.986 16.146 37.2601 15.8777C38.2837 14.8738 39.4587 13.9972 40.4846 12.9968C41.0374 12.4578 41.7498 11.9073 41.6747 11.0457C41.6573 10.8514 41.4942 10.494 41.2895 10.494H34.0808C34.0704 10.494 33.912 10.3714 33.9941 10.324C35.0673 9.58381 36.003 8.63545 37.0508 7.8675C37.8558 7.27767 38.3369 7.12616 39.3396 7.0186C42.0644 6.726 45.1628 6.83703 47.9003 6.93649C48.4682 6.95731 49.3495 6.84049 49.8537 6.93302C49.9486 6.95037 50.0122 6.97581 50.0654 7.06024V14.565Z" fill="#0F5045"/>
<path d="M31.4092 11.6807H27.5926V27.2847H31.4092V11.6807Z" fill="#0F5045"/>
<path d="M54.8141 15.922H51.2531V6H54.6869L54.8141 6.12722V15.922Z" fill="#0F5045"/>
<defs>
<filter id="filter0_d_1_402" x="0" y="0" width="67" height="49" filterUnits="userSpaceOnUse" color-interpolation-filters="sRGB">
<feFlood flood-opacity="0" result="BackgroundImageFix"/>
<feColorMatrix in="SourceAlpha" type="matrix" values="0 0 0 0 0 0 0 0 0 0 0 0 0 0 0 0 0 0 127 0" result="hardAlpha"/>
<feOffset dy="4"/>
<feGaussianBlur stdDeviation="2"/>
<feComposite in2="hardAlpha" operator="out"/>
<feColorMatrix type="matrix" values="0 0 0 0 0 0 0 0 0 0 0 0 0 0 0 0 0 0 0.25 0"/>
<feBlend mode="normal" in2="BackgroundImageFix" result="effect1_dropShadow_1_402"/>
<feBlend mode="normal" in="SourceGraphic" in2="effect1_dropShadow_1_402" result="shape"/>
</filter>
</defs>
</svg>
