<svg width="67" height="49" viewBox="0 0 67 49" fill="none" xmlns="http://www.w3.org/2000/svg">
<g filter="url(#filter0_d_1_384)">
<rect x="4" width="59" height="41" rx="5" fill="#DDFFF8"/>
</g>
<path d="M51 21.7216V27.9638C50.83 28.3374 50.7193 28.6455 50.3457 28.8695C48.8077 29.7939 47.8001 27.6034 46.7261 26.9057L39.9775 33.6419C39.4498 34.1121 38.7512 34.1962 38.15 33.8075L33.0491 28.7686L18.7266 37.5927H18.1289C17.5348 37.3872 17.2063 37.0605 17 36.4638V35.8661L17.3984 35.1693L32.9189 25.5882C33.3616 25.5297 33.799 25.5625 34.1656 25.8388L38.9468 30.6182L44.6861 24.8666C44.1186 23.9732 42.3982 23.0745 42.4982 21.8871C42.5602 21.1558 43.1464 20.6537 43.8574 20.5891C45.7291 20.4191 47.863 20.7157 49.7631 20.5997C50.4165 20.6785 50.7858 21.1372 50.9991 21.7216H51Z" fill="#0F5045"/>
<path d="M30.0688 5.00659C40.8 4.66659 46.5836 17.553 39.1478 25.3747C38.9283 25.6058 37.8737 26.5931 37.6488 26.6719C37.5736 26.6984 37.5443 26.7117 37.485 26.6409C36.4411 25.7218 35.4849 24.221 34.0691 23.8775C33.2819 23.6871 32.4744 23.7863 31.7643 24.167L25.5505 28.0204C19.7413 25.5137 16.9522 18.7261 19.1905 12.7885C20.8826 8.29946 25.2565 5.15889 30.0688 5.00659ZM31.543 12.0926V10.9309C31.543 10.3802 30.8612 9.90738 30.3202 9.97379C29.2197 10.1075 29.4162 11.3533 29.4109 12.1537C27.2177 12.5211 26.1756 15.0871 27.5028 16.8969C28.05 17.6433 28.9372 18.0612 29.8501 18.1356C30.3955 18.1798 31.2526 17.9691 31.6457 18.3985C32.0388 18.828 31.875 19.6762 31.2791 19.832C30.4513 20.0472 28.877 19.7585 27.9314 19.871C26.9273 19.9905 26.5191 21.2239 27.3647 21.818C27.9331 22.2182 28.8318 21.7932 29.4189 22.0881V23.3498C29.4189 23.6119 29.8819 24.0236 30.1449 24.0847C31.5501 24.4141 31.6306 22.9186 31.5474 21.9243C34.0806 21.5099 34.8722 18.1984 32.8375 16.6109C31.8175 15.8149 31.1082 16.1239 29.9847 16.0106C28.7823 15.8901 28.7769 14.4859 29.6827 14.2495C30.5434 14.0246 32.1336 14.3433 33.0987 14.2123C33.8654 14.1078 34.2541 13.2109 33.8318 12.561C33.3554 11.8287 32.2805 12.167 31.5439 12.0926H31.543Z" fill="#0F5045"/>
<defs>
<filter id="filter0_d_1_384" x="0" y="0" width="67" height="49" filterUnits="userSpaceOnUse" color-interpolation-filters="sRGB">
<feFlood flood-opacity="0" result="BackgroundImageFix"/>
<feColorMatrix in="SourceAlpha" type="matrix" values="0 0 0 0 0 0 0 0 0 0 0 0 0 0 0 0 0 0 127 0" result="hardAlpha"/>
<feOffset dy="4"/>
<feGaussianBlur stdDeviation="2"/>
<feComposite in2="hardAlpha" operator="out"/>
<feColorMatrix type="matrix" values="0 0 0 0 0 0 0 0 0 0 0 0 0 0 0 0 0 0 0.25 0"/>
<feBlend mode="normal" in2="BackgroundImageFix" result="effect1_dropShadow_1_384"/>
<feBlend mode="normal" in="SourceGraphic" in2="effect1_dropShadow_1_384" result="shape"/>
</filter>
</defs>
</svg>
