<svg width="67" height="49" viewBox="0 0 67 49" fill="none" xmlns="http://www.w3.org/2000/svg">
<g filter="url(#filter0_d_1_395)">
<rect x="4" width="59" height="41" rx="5" fill="#DDFFF8"/>
</g>
<path d="M33.8601 7V11.8482C33.8601 12.098 34.3937 12.517 34.6814 12.4528L37.7606 11.0152C38.4935 11.197 40.3198 12.5111 40.9643 12.4664C41.3307 12.4411 41.6612 11.9697 41.6612 11.6295V7.00097H48.6594V21.8722C48.19 21.9208 47.6806 22.1862 47.2481 22.3932C44.7919 23.5674 42.4242 24.9729 39.9544 26.1052C39.5879 25.0749 38.9455 24.2905 37.992 23.7559C35.1295 22.5361 32.3399 20.909 29.4638 19.7456C28.6328 19.4093 27.7696 19.0642 26.8628 19.0292V7H33.861H33.8601ZM41.8284 20.7554C41.9236 20.8633 42.1977 20.98 42.3503 20.9984C42.9549 21.0713 45.0456 21.082 45.6278 20.9916C46.5327 20.8517 46.4647 19.59 45.7017 19.4695C45.1671 19.385 42.7459 19.385 42.2113 19.4695C41.6349 19.5599 41.4833 20.3637 41.8293 20.7554H41.8284Z" fill="#0F5045"/>
<path d="M22.1963 31.1293V20.7777C23.9196 20.6203 25.6565 20.2383 27.3711 20.6689C30.7001 21.5057 34.2644 24.0076 37.5001 25.2654C39.0242 26.3034 37.9637 28.7246 36.2987 28.7985C35.9109 28.816 35.3442 28.5302 34.9768 28.3718C33.0513 27.5417 31.2036 26.5056 29.2694 25.6911C28.2624 25.5987 27.965 26.8429 28.9 27.2326C30.9179 28.0141 32.9036 29.2825 34.9039 30.0494C36.9043 30.8163 38.5216 29.6606 39.6657 28.0054L48.673 23.4536C51.377 22.6653 52.9896 26.2082 50.5295 27.7157C45.9612 29.6538 41.1917 33.2609 36.4669 34.6479C31.8062 36.0154 28.553 32.9061 24.4746 31.4384C23.7466 31.176 22.9632 31.0273 22.1953 31.1293H22.1963Z" fill="#0F5045"/>
<path d="M20.6655 19.4656H16V32.6602H20.6655V19.4656Z" fill="#0F5045"/>
<path d="M40.0565 7V10.3533C39.413 10.2163 38.2972 9.2997 37.6887 9.32789C37.1269 9.35413 36.0257 10.3028 35.391 10.3533V7H40.0565Z" fill="#0F5045"/>
<defs>
<filter id="filter0_d_1_395" x="0" y="0" width="67" height="49" filterUnits="userSpaceOnUse" color-interpolation-filters="sRGB">
<feFlood flood-opacity="0" result="BackgroundImageFix"/>
<feColorMatrix in="SourceAlpha" type="matrix" values="0 0 0 0 0 0 0 0 0 0 0 0 0 0 0 0 0 0 127 0" result="hardAlpha"/>
<feOffset dy="4"/>
<feGaussianBlur stdDeviation="2"/>
<feComposite in2="hardAlpha" operator="out"/>
<feColorMatrix type="matrix" values="0 0 0 0 0 0 0 0 0 0 0 0 0 0 0 0 0 0 0.25 0"/>
<feBlend mode="normal" in2="BackgroundImageFix" result="effect1_dropShadow_1_395"/>
<feBlend mode="normal" in="SourceGraphic" in2="effect1_dropShadow_1_395" result="shape"/>
</filter>
</defs>
</svg>
