<svg width="196" height="60" viewBox="0 0 196 60" fill="none" xmlns="http://www.w3.org/2000/svg">
<path d="M29.9428 0C29.899 0.387557 29.705 0.742488 29.4024 0.988534C27.7779 2.56689 26.2687 4.24081 24.8156 5.96415C23.7611 7.2163 22.766 8.51786 21.794 9.83261C20.9932 10.9167 20.2452 12.0436 19.4874 13.1673C18.8811 14.0833 18.3209 15.0224 17.7443 15.9549C17.596 16.1922 17.4741 16.4459 17.3192 16.6832C17.2698 16.7589 17.1413 16.8545 17.0786 16.838C17.016 16.8215 16.904 16.7029 16.8381 16.614C16.8114 16.5621 16.7989 16.5041 16.8019 16.4459L16.7129 14.6435C16.6569 13.6549 16.6042 12.6664 16.5481 11.6779C16.5481 11.6219 16.5481 11.5626 16.5481 11.5032C16.5481 9.234 16.5481 6.96257 16.5481 4.68894C16.5442 4.52748 16.5586 4.36609 16.591 4.20786C16.6246 4.12111 16.6713 4.04 16.7294 3.96731C16.9732 4.00027 16.9831 4.15514 16.9996 4.29683C17.1281 5.41716 17.25 6.5375 17.3785 7.65784C17.3983 7.83248 17.4411 8.00383 17.4642 8.17847C17.5564 8.83749 17.6421 9.49651 17.741 10.1786C17.8563 10.9332 17.9782 11.6812 18.1034 12.4325C18.1398 12.5696 18.1861 12.704 18.2418 12.8345C18.4231 12.6236 18.5713 12.4885 18.6669 12.3435C19.2864 11.5263 19.8729 10.6959 20.522 9.88863C21.5787 8.59695 22.6595 7.32394 23.7644 6.0696C25.1583 4.44511 26.6707 2.90958 28.2458 1.42678C28.6148 1.0775 29.0201 0.767761 29.4123 0.43825C29.5572 0.319626 29.6857 0.201002 29.6726 0.00329503L29.9428 0Z" fill="#71BF44"/>
<path d="M195.967 14.4261C195.862 14.4854 195.759 14.5513 195.638 14.6007C195.114 14.838 194.649 14.5513 194.702 14.001C194.702 13.8231 194.738 13.6484 194.738 13.4738C194.722 13.3554 194.692 13.2392 194.649 13.1278C194.58 13.207 194.519 13.2932 194.468 13.3848C194.349 13.688 194.231 13.9878 194.138 14.2943C194.114 14.3894 194.06 14.4744 193.984 14.5371C193.908 14.5998 193.815 14.637 193.716 14.6436C193.549 14.6617 193.381 14.6683 193.212 14.6633C193.106 14.6681 193.001 14.6387 192.913 14.5794C192.824 14.5201 192.757 14.434 192.721 14.3338C192.619 14.0735 192.51 13.8165 192.392 13.5595C192.336 13.4536 192.273 13.3512 192.204 13.253L192.082 13.2728C192.062 13.4079 192.029 13.5397 192.023 13.6748C192.023 13.8659 192.023 14.057 192.023 14.2449C191.996 14.5282 191.838 14.6534 191.538 14.6666C191.41 14.6885 191.279 14.6632 191.168 14.5953C191.057 14.5274 190.974 14.4217 190.935 14.2976C190.912 14.1683 190.903 14.0367 190.909 13.9055C190.909 13.4211 190.909 12.94 190.909 12.4556C190.909 11.9053 190.86 11.8658 190.25 11.8658H190.158C189.766 11.8658 189.7 11.9284 189.69 12.2941C189.69 12.8082 189.69 13.3222 189.69 13.833C189.698 13.9646 189.698 14.0967 189.69 14.2284C189.647 14.5579 189.463 14.6765 189.074 14.6699C188.744 14.6699 188.609 14.5513 188.596 14.2086C188.579 13.6649 188.596 13.1245 188.596 12.5808C188.596 12.449 188.596 12.3172 188.596 12.1854C188.601 12.141 188.595 12.0961 188.58 12.054C188.565 12.0119 188.541 11.9737 188.51 11.9421C188.478 11.9105 188.44 11.8864 188.398 11.8715C188.356 11.8566 188.311 11.8512 188.266 11.8559C188.098 11.8559 187.937 11.8559 187.759 11.8559C187.41 11.8262 187.251 11.6615 187.258 11.355C187.265 11.0486 187.41 10.9003 187.752 10.9003C188.807 10.9003 189.864 10.9168 190.919 10.9201C191.272 10.9201 191.621 10.9201 191.973 10.8937C192.123 10.8686 192.276 10.9008 192.402 10.9839C192.529 11.067 192.619 11.1949 192.655 11.3419C192.833 11.8559 193.054 12.3535 193.258 12.8576C193.289 12.9193 193.325 12.9778 193.367 13.0323C193.614 13.0125 193.628 12.828 193.677 12.683C193.822 12.2678 193.95 11.8493 194.099 11.4341C194.144 11.2647 194.248 11.117 194.392 11.0174C194.537 10.9177 194.712 10.8727 194.886 10.8904C195.268 10.8513 195.653 10.9162 196 11.0783L195.967 14.4261Z" fill="#0085CD"/>
<path d="M96.5932 27.1287C96.636 27.0397 96.6887 26.954 96.725 26.8617C97.15 25.7019 97.5685 24.5552 98.0002 23.3854C98.2704 22.6704 98.5735 21.9685 98.8371 21.2535C99.1963 20.288 99.5225 19.3159 99.8784 18.3505C100.234 17.385 100.653 16.3503 101.028 15.3486C101.302 14.6204 101.546 13.8823 101.816 13.1508C102.063 12.4918 102.33 11.8327 102.584 11.1737C102.653 10.9925 102.692 10.808 102.755 10.6267C102.94 10.083 103.127 9.95123 103.724 9.95123H110.759C110.864 9.95123 110.973 9.95123 111.088 9.95123C111.179 9.95224 111.266 9.98626 111.333 10.0469C111.401 10.1076 111.444 10.1907 111.454 10.2807C111.469 10.4263 111.476 10.5727 111.474 10.719V32.0713C111.474 32.6579 111.395 32.7303 110.782 32.7303H106.864C106.741 32.7386 106.618 32.7386 106.495 32.7303C106.396 32.7273 106.302 32.6875 106.23 32.6186C106.159 32.5498 106.116 32.4569 106.109 32.358C106.101 32.212 106.101 32.0657 106.109 31.9197C106.109 27.054 106.109 22.1871 106.109 17.3191C106.109 17.1511 106.08 16.9896 106.067 16.8215L105.958 16.7985C105.887 16.8778 105.827 16.9665 105.78 17.0621C105.427 18.0078 105.088 18.9634 104.729 19.9091C104.32 20.9811 103.904 22.0487 103.48 23.1119C103.101 24.0675 102.706 25.0165 102.333 25.9721C101.961 26.9277 101.625 27.8733 101.259 28.819C100.995 29.5044 100.705 30.1799 100.435 30.862C100.284 31.2442 100.142 31.6331 100.013 32.0219C99.8191 32.6018 99.628 32.7468 98.9887 32.7468H94.1482C93.995 32.7514 93.8418 32.7425 93.6902 32.7205C93.585 32.7062 93.4857 32.6633 93.4032 32.5965C93.3207 32.5297 93.2581 32.4415 93.2223 32.3415C92.9817 31.6825 92.7478 31.0465 92.4973 30.4007C92.2469 29.7549 91.9471 29.0827 91.6834 28.4006C91.4198 27.7185 91.1925 27.1122 90.9453 26.4663L90.1611 24.4563C89.881 23.7281 89.6042 23.0032 89.3176 22.2782C89.0704 21.6489 88.8101 21.0228 88.563 20.3934C88.3158 19.7641 88.0391 19.0523 87.7787 18.3834C87.5514 17.7936 87.324 17.2038 87.0901 16.6172C87.0901 16.5843 87.0242 16.5645 86.9912 16.5382C86.8067 16.637 86.8693 16.7985 86.8693 16.9336C86.8693 21.918 86.8693 26.9024 86.8693 31.8868C86.8693 32.671 86.7935 32.7468 85.9862 32.7501H82.3616C82.2519 32.7588 82.1417 32.7588 82.0321 32.7501C81.9253 32.7511 81.8222 32.7109 81.7442 32.6379C81.6663 32.5649 81.6195 32.4646 81.6136 32.358C81.6053 32.2406 81.6053 32.1228 81.6136 32.0054C81.6136 24.9407 81.6136 17.8749 81.6136 10.808C81.6136 10.0764 81.6927 9.99407 82.444 9.99407C84.6517 9.99407 86.8594 9.99407 89.0671 9.99407C89.2609 9.96539 89.4585 10.0067 89.6246 10.1105C89.7907 10.2144 89.9143 10.3741 89.9733 10.5608C90.0985 10.8903 90.2534 11.2429 90.3819 11.5856C90.7509 12.5741 91.1035 13.5396 91.4824 14.5117C91.8614 15.4837 92.2568 16.4162 92.6291 17.3751C93.0015 18.334 93.3409 19.2731 93.7066 20.2188C93.9571 20.8778 94.2372 21.5368 94.4909 22.1959C94.7446 22.8549 94.9983 23.5732 95.2652 24.2553C95.5321 24.9374 95.8122 25.6195 96.0824 26.3049C96.1417 26.4532 96.1648 26.6344 96.2274 26.7662C96.2975 26.9174 96.3756 27.0648 96.4614 27.2077L96.5932 27.1287Z" fill="#0085CD"/>
<path d="M136.727 21.3326C136.727 17.8178 136.727 14.303 136.727 10.7883C136.727 10.004 136.767 9.96777 137.581 9.96777H140.843C140.965 9.96777 141.09 9.96777 141.212 9.96777C141.647 10.0007 141.779 10.1193 141.785 10.5477C141.785 11.3254 141.785 12.103 141.785 12.8774C141.785 13.6517 141.785 14.403 141.785 15.1642C141.785 15.7144 141.832 15.754 142.421 15.754H147.891C149.522 15.7349 151.099 16.3329 152.307 17.4279C153.246 18.2784 153.983 19.3275 154.465 20.499C155.012 21.8326 155.238 23.2763 155.124 24.7134C155.113 25.5496 154.981 26.3798 154.732 27.1781C154.056 29.086 153.035 30.7435 151.213 31.8539C150.241 32.4412 149.125 32.7448 147.99 32.7304H137.416C136.816 32.7304 136.727 32.6447 136.727 32.0714C136.723 28.4907 136.723 24.9111 136.727 21.3326ZM141.789 24.1433V28.3216C141.789 28.7763 141.845 28.8389 142.313 28.8389C143.646 28.8389 144.98 28.8389 146.313 28.8389C147.049 28.833 147.755 28.5494 148.29 28.0448C149.13 27.3035 149.669 26.2801 149.806 25.1681C149.913 24.4421 149.894 23.7031 149.75 22.9835C149.584 22.2756 149.258 21.615 148.797 21.0525C148.442 20.5865 147.983 20.2092 147.457 19.9503C146.931 19.6913 146.352 19.5577 145.766 19.5598C144.632 19.5335 143.499 19.5598 142.365 19.5598C141.832 19.5598 141.782 19.6093 141.782 20.1101L141.789 24.1433Z" fill="#0085CD"/>
<path d="M60.8312 21.3622V10.6762C60.8312 10.0897 60.9433 9.96773 61.5463 9.96444C62.7391 9.96444 63.9352 9.96444 65.1314 9.96444C65.2419 9.96389 65.3522 9.97382 65.4609 9.99409C65.7673 10.0567 65.8761 10.172 65.9057 10.4686C65.9057 10.6004 65.9057 10.7322 65.9057 10.864V15.1707C65.9057 15.7078 65.9518 15.7507 66.5054 15.7507C68.2683 15.7507 70.0312 15.7671 71.7941 15.7507C73.2682 15.705 74.7151 16.1552 75.9031 17.0292C77.4083 18.1822 78.4837 19.8064 78.9576 21.6423C79.3195 22.978 79.3736 24.3785 79.1158 25.7381C79.0352 26.2729 78.9174 26.8014 78.7632 27.3198C78.3682 28.4685 77.7588 29.5319 76.9674 30.4534C76.3958 31.1141 75.7035 31.6598 74.9277 32.0615C74.1176 32.4972 73.2115 32.7238 72.2916 32.7205C68.7197 32.7205 65.1511 32.7205 61.5792 32.7205C61.4695 32.7276 61.3594 32.7276 61.2497 32.7205C61.1432 32.7173 61.0417 32.6743 60.9654 32.5998C60.8891 32.5253 60.8436 32.4249 60.8378 32.3185C60.8312 32.201 60.8312 32.0833 60.8378 31.9659L60.8312 21.3622ZM65.9024 24.1894C65.9024 25.5668 65.9024 26.9474 65.9024 28.3248C65.9024 28.7795 65.965 28.8388 66.4296 28.8388C67.7147 28.8388 69.0031 28.8388 70.2915 28.8388C70.7037 28.8424 71.1126 28.7641 71.4944 28.6086C71.8762 28.453 72.2233 28.2233 72.5157 27.9327C73.3698 27.0986 73.8881 25.98 73.9721 24.7891C74.0976 23.5922 73.8029 22.3888 73.1385 21.3853C72.7886 20.8144 72.2956 20.3447 71.7084 20.0228C71.1213 19.7009 70.4602 19.5379 69.7906 19.5499C68.7033 19.5269 67.6126 19.5499 66.5252 19.5499H66.2484C66.2044 19.547 66.1602 19.5535 66.1189 19.5691C66.0776 19.5846 66.0401 19.6088 66.0089 19.64C65.9777 19.6712 65.9536 19.7087 65.938 19.75C65.9225 19.7913 65.916 19.8354 65.9189 19.8794C65.9189 19.9981 65.9189 20.1134 65.9189 20.232L65.9024 24.1894Z" fill="#71BF44"/>
<path d="M114.192 24.0644C114.167 23.6408 114.167 23.2161 114.192 22.7925C114.302 21.9899 114.542 21.2107 114.904 20.4859C115.248 19.7908 115.713 19.1626 116.278 18.6307C116.983 17.9481 117.792 17.3809 118.673 16.9502C119.352 16.609 120.067 16.3459 120.805 16.166C121.724 15.9291 122.665 15.7899 123.613 15.7508C124.668 15.719 125.724 15.7963 126.763 15.9815C127.619 16.1268 128.457 16.362 129.264 16.6833C131.043 17.428 132.467 18.578 133.32 20.275C133.811 21.1691 134.063 22.1746 134.052 23.1945C134.04 23.2963 134.04 23.3991 134.052 23.5009C134.142 24.3003 134.114 25.1084 133.969 25.8997C133.844 26.7279 133.576 27.5283 133.179 28.2656C132.872 28.8427 132.497 29.3805 132.061 29.8671C131.512 30.468 130.869 30.9755 130.157 31.3696C129.147 31.9374 128.047 32.3264 126.905 32.5196C126.273 32.635 125.633 32.7011 124.99 32.7173C123.796 32.7846 122.599 32.7327 121.415 32.5625C119.784 32.3022 118.235 31.8013 116.95 30.7502C115.967 29.9778 115.211 28.9528 114.765 27.7846C114.315 26.5985 114.12 25.3309 114.192 24.0644ZM124.259 19.527C123.119 19.527 122.436 19.6753 121.83 20.0345C121.265 20.3515 120.777 20.7904 120.402 21.3193C120.027 21.8481 119.774 22.4538 119.662 23.0923C119.417 24.2477 119.54 25.4507 120.015 26.5324C120.293 27.2707 120.782 27.9109 121.421 28.3732C122.06 28.8355 122.821 29.0995 123.61 29.1323C124.077 29.1685 124.552 29.1323 125.026 29.1323C125.61 29.1132 126.178 28.9404 126.674 28.6314C127.106 28.3879 127.483 28.0571 127.78 27.6599C128.077 27.2628 128.289 26.8081 128.401 26.3248C128.648 25.3692 128.882 24.3939 128.671 23.3823C128.594 22.799 128.421 22.2324 128.16 21.7051C127.802 21.0445 127.268 20.496 126.618 20.1201C125.915 19.6754 125.088 19.4675 124.259 19.527Z" fill="#0085CD"/>
<path d="M183.775 22.6113H187.96C188.097 22.603 188.235 22.603 188.372 22.6113C188.701 22.6443 188.836 22.7695 188.866 23.0858C188.866 23.2604 188.866 23.4351 188.866 23.613C188.866 24.2852 188.866 24.9596 188.866 25.6362C188.87 25.7675 188.861 25.8988 188.84 26.0283C188.829 26.1521 188.771 26.267 188.677 26.3492C188.584 26.4314 188.463 26.4746 188.339 26.4699C188.217 26.4699 188.095 26.4699 187.973 26.4699H179.465C179.389 26.4699 179.314 26.4699 179.238 26.4699C178.908 26.4896 178.849 26.5588 178.836 26.8752C178.809 27.5342 179.165 28.0219 179.63 28.4502C180.041 28.8353 180.559 29.0858 181.116 29.1686C181.782 29.27 182.456 29.3141 183.129 29.3004C184.737 29.3004 186.345 29.3004 187.957 29.3004C188.095 29.3004 188.233 29.3004 188.368 29.3004C188.698 29.3366 188.853 29.4783 188.859 29.7815C188.876 30.6019 188.876 31.429 188.859 32.2462C188.859 32.5757 188.691 32.6976 188.329 32.7207C188.237 32.7207 188.144 32.7207 188.052 32.7207C185.492 32.7207 182.935 32.7207 180.375 32.7207C178.684 32.7115 177.062 32.0532 175.844 30.882C175.162 30.2563 174.575 29.5335 174.104 28.7369C173.76 28.136 173.488 27.4968 173.293 26.8323C172.951 25.6141 172.872 24.3371 173.059 23.0858C173.166 22.2541 173.406 21.4452 173.771 20.6902C174.389 19.4444 175.265 18.3446 176.341 17.4643C177.135 16.7812 178.065 16.2746 179.07 15.9782C179.642 15.8127 180.236 15.7328 180.833 15.741C183.208 15.741 185.581 15.741 187.957 15.741C188.065 15.741 188.174 15.741 188.286 15.741C188.724 15.7608 188.866 15.8794 188.869 16.3045C188.869 17.1711 188.869 18.0344 188.869 18.901C188.869 19.3986 188.734 19.5139 188.21 19.5139C186.25 19.5139 184.286 19.5139 182.325 19.5139C181.515 19.4876 180.717 19.7183 180.045 20.1729C179.719 20.3827 179.444 20.6625 179.24 20.992C179.036 21.3215 178.908 21.6923 178.865 22.0775C178.816 22.5124 178.902 22.5882 179.373 22.5882H183.775V22.6113Z" fill="#0085CD"/>
<path d="M165.586 21.323C165.586 17.8214 165.586 14.3187 165.586 10.8149C165.586 10.0141 165.642 9.96143 166.463 9.96143H169.82C169.926 9.96143 170.034 9.96143 170.15 9.96143C170.499 9.98779 170.601 10.0833 170.644 10.4194C170.651 10.5369 170.651 10.6546 170.644 10.772V31.9629C170.644 32.0519 170.644 32.1408 170.644 32.2265C170.611 32.6087 170.499 32.7208 170.097 32.7241C168.794 32.7241 167.492 32.7241 166.189 32.7241C165.711 32.7241 165.589 32.589 165.589 32.0914C165.589 30.6712 165.589 29.2477 165.589 27.8275L165.586 21.323Z" fill="#0085CD"/>
<path d="M157.503 24.2356V16.6338C157.503 16.5448 157.503 16.4591 157.503 16.3702C157.503 15.8924 157.635 15.7606 158.126 15.754C159.368 15.754 160.607 15.754 161.849 15.754C162.317 15.754 162.443 15.8891 162.469 16.3339C162.469 16.4492 162.469 16.5679 162.469 16.6832V31.8407C162.469 32.6678 162.413 32.7238 161.566 32.7238H158.403C158.266 32.7321 158.128 32.7321 157.991 32.7238C157.661 32.681 157.536 32.5557 157.507 32.2427C157.507 32.1406 157.507 32.0351 157.507 31.933L157.503 24.2356Z" fill="#0085CD"/>
<path d="M52.6889 13.0123C52.5535 13.0545 52.4145 13.0843 52.2737 13.1013C52.0131 13.0956 51.7573 13.1717 51.5422 13.3187C51.4801 13.3621 51.411 13.3944 51.3379 13.4143C50.8238 13.5461 50.3032 13.6647 49.7925 13.8031C49.2817 13.9415 48.7644 14.0898 48.2569 14.2447C47.4529 14.4863 46.6522 14.7334 45.8548 14.9861C45.377 15.1376 44.9058 15.3156 44.4346 15.477C43.7756 15.7077 43.1166 15.9318 42.4575 16.1723C41.7458 16.4359 41.0363 16.7072 40.3289 16.9862C39.4985 17.3157 38.6583 17.6452 37.8411 18.0011C36.3275 18.6601 34.8228 19.3466 33.3268 20.0605C32.3383 20.5186 31.3959 21.0029 30.4403 21.4972C29.6198 21.9223 28.8158 22.377 28.0118 22.8152C27.9063 22.8713 27.847 22.9965 27.7646 23.092C27.8662 23.1754 27.9768 23.2472 28.0942 23.3062C29.0102 23.6786 29.9262 24.041 30.8456 24.4068C31.465 24.6539 32.0878 24.8978 32.704 25.1482L34.6415 25.9456L36.9942 26.9341C37.8345 27.2867 38.6715 27.6393 39.5084 27.9985C40.4146 28.3873 41.3207 28.7761 42.2236 29.1748C42.9452 29.5043 43.6636 29.8338 44.3819 30.1633C45.1694 30.5225 45.957 30.8718 46.7412 31.2376C47.7297 31.6923 48.6853 32.1602 49.6574 32.6215C50.6294 33.0828 51.6048 33.5375 52.5735 34.0022C53.1304 34.2724 53.6741 34.5623 54.2211 34.8391C54.343 34.8984 54.488 34.9149 54.6033 34.9808C54.6378 35.0026 54.6668 35.0321 54.6879 35.067C54.7091 35.1018 54.7219 35.1411 54.7252 35.1818C54.7076 35.2194 54.6815 35.2524 54.6489 35.2782C54.6163 35.3039 54.5781 35.3217 54.5374 35.3301C54.4322 35.3331 54.3275 35.3129 54.231 35.2708C54.0168 35.1917 53.8125 35.0961 53.6016 35.0105C52.4945 34.559 51.3906 34.101 50.2768 33.6595C49.3443 33.2871 48.4052 32.9411 47.4661 32.582C46.2601 32.1173 45.0574 31.6461 43.8415 31.1947C42.853 30.829 41.8644 30.483 40.8759 30.1271C39.8874 29.7712 38.9944 29.4351 38.0487 29.1056C37.3172 28.8453 36.5824 28.6015 35.8475 28.3444C35.1127 28.0874 34.3318 27.7975 33.5706 27.5371C32.9116 27.3098 32.2526 27.0989 31.5936 26.8781L30.2755 26.4596C29.3496 26.1598 28.4237 25.8632 27.4977 25.5568C26.4005 25.1976 25.3065 24.8253 24.2026 24.4694C23.7545 24.3277 23.2965 24.2124 22.8384 24.0938C22.4892 24.0048 22.4101 23.7642 22.6572 23.5171C22.7123 23.4648 22.7744 23.4204 22.8417 23.3853C23.4678 23.0558 24.0939 22.7263 24.7265 22.3968C25.6953 21.8959 26.6641 21.4082 27.6427 20.9074C28.6214 20.4065 29.6198 19.9419 30.6413 19.4872C31.5672 19.0654 32.4997 18.6568 33.4454 18.2812C34.6152 17.8166 35.8047 17.3882 36.9877 16.9631C37.6994 16.6995 38.4079 16.426 39.1262 16.1822C39.8445 15.9383 40.609 15.7143 41.3471 15.4803C41.8842 15.3123 42.418 15.1277 42.9584 14.9729C43.4988 14.818 44.0458 14.6829 44.606 14.5379L45.6604 14.2545C46.3194 14.0865 46.9587 13.925 47.6111 13.7537C48.2635 13.5823 48.9291 13.4571 49.5882 13.3088L50.1648 13.1639C50.3548 13.1051 50.5502 13.0654 50.748 13.0452C51.0529 13.0404 51.3539 12.9766 51.6344 12.8574C51.806 12.7769 51.9974 12.7486 52.185 12.7762C52.3725 12.8037 52.5477 12.8858 52.6889 13.0123Z" fill="#0085CD"/>
<path d="M23.1286 34.8329C23.1197 34.9172 23.1197 35.0023 23.1286 35.0866C23.3922 35.9104 23.6657 36.7342 23.926 37.5546C24.0809 38.0423 24.1962 38.5432 24.361 39.0275C24.6147 39.7657 24.8948 40.4906 25.165 41.2221C25.3067 41.6076 25.4385 41.9964 25.5868 42.3787C25.8701 43.1036 26.1601 43.8263 26.4567 44.5469C26.8093 45.4036 27.1552 46.2636 27.5276 47.1138C27.8571 47.865 28.2163 48.6097 28.5721 49.3511C28.928 50.0925 29.3267 50.9196 29.7353 51.6874C30.3087 52.7704 30.8974 53.8457 31.5015 54.9133C32.1309 56.0171 32.7932 57.1045 33.4291 58.2084C33.4877 58.3587 33.5265 58.516 33.5445 58.6763C33.3533 58.5775 33.2413 58.5544 33.1952 58.4918C32.6284 57.7108 32.0452 56.9431 31.518 56.1424C30.7008 54.9034 29.9001 53.6546 29.1323 52.3892C28.4173 51.2129 27.7418 50.0167 27.0795 48.814C26.5951 47.9342 26.1601 47.0281 25.7021 46.1351C25.4319 45.6112 25.1485 45.0906 24.8915 44.56C24.6345 44.0295 24.4236 43.5451 24.1962 43.0344C23.8997 42.3754 23.5932 41.6933 23.3131 41.0145C23.0331 40.3357 22.8057 39.7294 22.5553 39.0869C22.3048 38.4443 22.0478 37.7688 21.8007 37.1098C21.6227 36.6287 21.4712 36.1443 21.2899 35.6566C21.1581 35.2678 21.0263 34.879 20.9044 34.4869C20.5793 33.4368 20.2498 32.3846 19.9159 31.3302C19.9159 31.2873 19.8862 31.2478 19.8763 31.205C19.8005 30.8754 19.9324 30.7535 20.2652 30.8524C20.3968 30.8914 20.5238 30.9444 20.6441 31.0105C21.3591 31.3763 22.0676 31.7552 22.7826 32.1177C23.4977 32.4802 24.1468 32.7767 24.8289 33.1062C26.3183 33.8202 27.8077 34.5352 29.2971 35.2514C30.4734 35.8115 31.6465 36.375 32.8327 36.9187C33.8509 37.3833 34.8856 37.8248 35.9136 38.2763C36.9417 38.7277 37.9962 39.1989 39.0407 39.6503C39.5811 39.8876 40.1314 40.1083 40.6883 40.3357C41.6142 40.7212 42.5368 41.1101 43.466 41.4857C44.3392 41.8383 45.219 42.1777 46.1021 42.5237C46.7381 42.7741 47.374 43.0278 48.0133 43.2749C48.4087 43.4265 48.814 43.5583 49.2094 43.7132C49.6576 43.8878 50.0958 44.079 50.5275 44.2569C50.6527 44.3096 50.7944 44.3228 50.9163 44.3821C50.9961 44.4369 51.0682 44.5023 51.1305 44.5765C51.0434 44.6433 50.9495 44.7008 50.8504 44.7479C50.7744 44.7602 50.6965 44.7499 50.6263 44.7182C49.8322 44.4678 49.0414 44.2042 48.244 43.957C47.4465 43.7099 46.5964 43.4792 45.7957 43.2222C44.995 42.9652 44.2074 42.6917 43.4133 42.4347C42.6192 42.1777 41.9009 41.9635 41.1529 41.7131C40.4049 41.4626 39.6305 41.1793 38.8661 40.9124C38.1774 40.6718 37.4854 40.4412 36.8 40.194C36.1146 39.9469 35.5149 39.7228 34.8724 39.4856L32.8624 38.7343C32.2034 38.4872 31.5443 38.2433 30.8853 37.9896C30.2263 37.7359 29.6134 37.4887 28.9774 37.235L26.8191 36.3552L24.3709 35.3667C23.9788 35.1953 23.5932 35.0372 23.1286 34.8329Z" fill="#0085CD"/>
<path d="M158.485 42.2664C158.541 42.2004 158.587 42.1273 158.624 42.0489C158.755 41.6008 158.871 41.146 159.003 40.6946C159.171 40.1213 159.352 39.5479 159.523 38.9713C159.671 38.4803 159.816 37.9827 159.955 37.4951C160.064 37.1128 160.143 37.0305 160.551 37.0239C161.087 37.0107 161.624 37.0107 162.163 37.0239C162.601 37.0239 162.706 37.2051 162.555 37.5873C162.403 37.9696 162.251 38.3518 162.116 38.7406C161.853 39.4886 161.612 40.2432 161.342 40.9879C160.98 41.9764 160.591 42.9649 160.218 43.9535C160.093 44.283 159.981 44.6125 159.856 44.942C159.812 45.0644 159.728 45.1679 159.617 45.2351C159.506 45.3024 159.375 45.3292 159.246 45.3111C158.68 45.3111 158.113 45.3111 157.546 45.3111C157.039 45.3111 156.917 45.1793 156.782 44.7212C156.62 44.1776 156.419 43.6404 156.241 43.1001C156.103 42.6816 155.971 42.2631 155.843 41.8413C155.714 41.4195 155.592 40.9978 155.457 40.5793C155.411 40.4887 155.353 40.4045 155.286 40.3289C155.212 40.411 155.149 40.5017 155.098 40.5991C154.87 41.2976 154.653 41.9962 154.439 42.6948C154.225 43.3933 154.017 44.0688 153.8 44.7575C153.651 45.2188 153.543 45.3045 153.055 45.3111C152.567 45.3177 152.014 45.3111 151.493 45.3111C151.035 45.3111 150.897 45.1727 150.745 44.741C150.471 43.9667 150.181 43.1989 149.898 42.4344C149.77 42.0786 149.644 41.7161 149.516 41.3569C149.209 40.5002 148.896 39.6468 148.593 38.79C148.445 38.3749 148.297 37.9597 148.181 37.5379C148.079 37.1754 148.181 37.0436 148.583 37.0337C149.12 37.0337 149.658 37.0337 150.191 37.0337C150.313 37.0251 150.434 37.0592 150.533 37.1302C150.633 37.2012 150.704 37.3046 150.735 37.4226C150.857 37.8015 150.986 38.1772 151.101 38.5561C151.259 39.0734 151.404 39.5973 151.562 40.118C151.72 40.6386 151.872 41.1065 152.03 41.5843C152.099 41.8051 152.172 42.0258 152.241 42.2433C152.452 42.2433 152.481 42.1082 152.521 41.9896C152.673 41.4986 152.811 41.0011 152.959 40.5134L153.516 38.711C153.651 38.276 153.783 37.8411 153.915 37.3929C154.007 37.0964 154.066 37.0337 154.393 37.0239C155.006 37.0239 155.618 37.0239 156.231 37.0239C156.339 37.0126 156.447 37.0394 156.537 37.0996C156.626 37.1598 156.692 37.2496 156.722 37.3534C156.884 37.8246 157.052 38.2958 157.21 38.7703C157.418 39.3799 157.622 39.9928 157.816 40.6056C157.955 41.0406 158.08 41.4789 158.215 41.9237C158.258 42.0522 158.314 42.1774 158.363 42.3059L158.485 42.2664Z" fill="#71BF44"/>
<path d="M60.8312 41.1265C60.8312 39.9699 60.8312 38.8199 60.8312 37.6568C60.8312 37.1032 60.9103 37.0208 61.4902 37.0175C63.2827 37.0175 65.0753 37.0175 66.8645 37.0175C67.3198 37.0085 67.7694 37.1205 68.1671 37.3423C68.5649 37.564 68.8966 37.8875 69.1283 38.2795C69.367 38.6433 69.5205 39.0561 69.5776 39.4874C69.6346 39.9187 69.5937 40.3574 69.4578 40.7706C69.3498 41.1461 69.1174 41.4738 68.7988 41.6999C68.69 41.7822 68.5747 41.8514 68.4692 41.9338C68.2122 42.1282 68.2056 42.1678 68.3967 42.4347C68.902 43.1508 69.4083 43.8647 69.9158 44.5765C69.9712 44.6466 70.0218 44.7204 70.0674 44.7973C70.2058 45.0905 70.0904 45.2882 69.7379 45.3047C69.3853 45.3212 69.0953 45.3047 68.7724 45.3047H67.2138C67.0548 45.3161 66.8958 45.2841 66.7536 45.2121C66.6114 45.1402 66.4914 45.031 66.4065 44.8961C65.988 44.2668 65.5465 43.6539 65.1148 43.0311C65.043 42.8974 64.9326 42.7886 64.798 42.7186C64.6634 42.6487 64.5109 42.6209 64.3602 42.639C64.067 42.6785 63.9813 42.7378 63.9714 43.0278C63.9714 43.4529 63.9714 43.8746 63.9714 44.2997C63.9714 44.4315 63.9714 44.5633 63.9714 44.6951C63.9714 45.1531 63.8165 45.2915 63.3124 45.3014C62.6863 45.3014 62.057 45.3014 61.4309 45.3014C60.9498 45.3014 60.8147 45.1597 60.8114 44.6819C60.8114 43.5978 60.8114 42.5137 60.8114 41.4297V41.1232L60.8312 41.1265ZM64.9567 40.0951C65.1247 40.0951 65.2862 40.0951 65.4608 40.0951C65.5816 40.095 65.7017 40.0761 65.8167 40.0391C65.9056 40.0062 66.0374 39.9007 66.0276 39.8546C65.9842 39.7546 65.9134 39.6689 65.8233 39.6075C65.7708 39.575 65.7103 39.5578 65.6486 39.558C65.2071 39.558 64.7655 39.5284 64.3306 39.5317C64.2881 39.5251 64.2447 39.5283 64.2035 39.5408C64.1624 39.5533 64.1246 39.5749 64.093 39.6041C64.0613 39.6332 64.0366 39.669 64.0207 39.709C64.0048 39.7489 63.9981 39.7919 64.0011 39.8348C64.0011 40.0457 64.179 40.0886 64.3536 40.0951C64.5283 40.1017 64.7589 40.0951 64.9567 40.0951Z" fill="#0085CD"/>
<path d="M102.873 39.8249C103.032 39.8249 103.187 39.8578 103.345 39.8611H106.241C106.347 39.8611 106.455 39.8611 106.571 39.8611C106.877 39.8875 107.009 39.9797 107.019 40.2598C107.038 40.8595 107.038 41.4625 107.019 42.0623C107.019 42.3193 106.887 42.4148 106.607 42.4478C106.47 42.4561 106.332 42.4561 106.195 42.4478H103.022C102.94 42.4544 102.859 42.4654 102.778 42.4807C102.795 42.5832 102.851 42.675 102.935 42.7365C103.019 42.7981 103.123 42.8245 103.226 42.8102C103.503 42.8102 103.776 42.7905 104.053 42.7872C104.804 42.7872 105.555 42.7872 106.304 42.7872C106.963 42.7872 107.029 42.8465 107.032 43.5022C107.032 43.9108 107.032 44.3227 107.032 44.7346C107.032 45.1992 106.907 45.3145 106.435 45.3178C105.117 45.3178 103.766 45.3804 102.439 45.3178C101.748 45.2968 101.077 45.0788 100.506 44.6894C99.9354 44.3 99.4876 43.7554 99.2159 43.12C98.7711 42.1117 98.9193 41.077 98.949 40.0424C99.351 38.7836 100.04 37.7786 101.41 37.2876C101.916 37.116 102.448 37.0335 102.982 37.0438H106.34C106.462 37.0372 106.584 37.0372 106.706 37.0438C106.793 37.0438 106.877 37.0785 106.939 37.1403C107 37.2021 107.035 37.2859 107.035 37.3733C107.035 37.9895 107.035 38.6057 107.035 39.2219C107.035 39.4855 106.903 39.5777 106.63 39.6074C106.507 39.614 106.384 39.614 106.261 39.6074C105.325 39.6074 104.393 39.6074 103.457 39.6074C103.269 39.6207 103.082 39.6438 102.897 39.6766L102.873 39.8249Z" fill="#0085CD"/>
<path d="M79.3464 41.0833C79.3464 41.3469 79.3464 41.6105 79.3464 41.8741C79.3309 42.5734 79.0966 43.2503 78.6763 43.8094C78.256 44.3686 77.671 44.7819 77.0036 44.9913C76.4789 45.1598 75.9356 45.2638 75.3857 45.301C74.59 45.3718 73.7881 45.2959 73.0198 45.0769C72.4537 44.9496 71.9303 44.6774 71.5011 44.2869C71.0719 43.8964 70.7516 43.4011 70.5715 42.8494C70.3361 42.1376 70.2486 41.3852 70.3145 40.6384C70.341 39.9489 70.5624 39.2811 70.9532 38.7124C71.344 38.1437 71.8881 37.6976 72.5222 37.4257C73.0315 37.1626 73.5966 37.0259 74.1698 37.027C74.7662 37.0467 75.3692 36.9907 75.9623 37.05C77.2046 37.1785 78.2689 37.6432 78.9279 38.7371C79.1934 39.1653 79.3453 39.6541 79.3695 40.1573C79.3695 40.4671 79.3695 40.7735 79.3695 41.0833H79.3464ZM74.8717 42.7703C75.0068 42.7703 75.1287 42.7703 75.2539 42.7703C75.4146 42.7687 75.5718 42.7226 75.7079 42.6371C75.844 42.5516 75.9537 42.4301 76.025 42.286C76.29 41.8207 76.3767 41.2749 76.2688 40.7504C76.0315 39.785 75.5702 39.4093 74.4466 39.5543C74.2664 39.5733 74.0949 39.6414 73.9507 39.7512C73.8066 39.861 73.6955 40.0084 73.6294 40.1771C73.494 40.5029 73.4243 40.8523 73.4243 41.2052C73.4243 41.558 73.494 41.9074 73.6294 42.2332C73.6829 42.338 73.7581 42.4302 73.8502 42.5034C73.9912 42.6189 74.1555 42.7025 74.3318 42.7485C74.508 42.7946 74.6922 42.802 74.8717 42.7703Z" fill="#0085CD"/>
<path d="M89.1791 40.1673C89.1791 40.9614 89.1791 41.7523 89.1791 42.5431C89.1811 42.8691 89.114 43.1918 88.9823 43.49C88.8505 43.7882 88.657 44.0551 88.4146 44.273C87.9407 44.7224 87.3487 45.0275 86.7077 45.1528C85.8513 45.3254 84.9742 45.3709 84.1046 45.2879C83.2305 45.2564 82.384 44.9739 81.6662 44.474C81.3277 44.2425 81.049 43.9338 80.853 43.5735C80.6571 43.2131 80.5496 42.8114 80.5393 42.4014C80.4931 40.7901 80.5228 39.1755 80.5393 37.5642C80.5393 37.1589 80.6645 37.0304 81.0862 37.0238C81.8079 37.0238 82.5262 37.0238 83.2478 37.0238C83.6828 37.0238 83.7718 37.1259 83.7718 37.5642C83.7718 38.8526 83.7718 40.1442 83.7718 41.4326C83.7718 41.5941 83.7718 41.7621 83.7718 41.917C83.7705 42.0374 83.7943 42.1568 83.8417 42.2675C83.8891 42.3782 83.9591 42.4778 84.0471 42.56C84.1352 42.6422 84.2394 42.7051 84.3531 42.7447C84.4668 42.7843 84.5875 42.7998 84.7076 42.7902C84.8914 42.793 85.0752 42.7842 85.2579 42.7639C85.4556 42.7669 85.647 42.6942 85.7928 42.5606C85.9386 42.427 86.0278 42.2428 86.0421 42.0455C86.0504 41.9281 86.0504 41.8103 86.0421 41.6929V37.9135C86.0421 37.8377 86.0421 37.7652 86.0421 37.6927C86.0421 37.1127 86.1377 37.0337 86.7275 37.0337C87.3173 37.0337 87.8907 37.0337 88.4739 37.0337H88.6584C89.0736 37.0567 89.1659 37.1391 89.1692 37.5444C89.1692 38.4242 89.1692 39.3007 89.1692 40.1805L89.1791 40.1673Z" fill="#0085CD"/>
<path d="M171.297 41.0899V37.7025C171.29 37.5862 171.29 37.4696 171.297 37.3532C171.297 37.2658 171.331 37.182 171.393 37.1202C171.455 37.0584 171.539 37.0237 171.626 37.0237C171.736 37.0167 171.846 37.0167 171.956 37.0237C173.781 37.0237 175.607 37.0699 177.425 37.0237C179.001 36.9743 180.038 38.3978 180.062 39.5445C180.077 39.8085 180.057 40.0733 180.002 40.332C179.915 40.6654 179.75 40.9735 179.521 41.2311C179.292 41.4888 179.005 41.6888 178.684 41.8148C178.253 42.0059 178.213 42.1015 178.467 42.4738C178.958 43.179 179.455 43.8776 179.959 44.5827C180.034 44.6741 180.092 44.7778 180.131 44.8892C180.152 44.938 180.16 44.9914 180.154 45.0443C180.149 45.0972 180.13 45.1478 180.099 45.1912C180.068 45.2345 180.027 45.2692 179.979 45.292C179.93 45.3147 179.877 45.3246 179.824 45.3208C179.225 45.3373 178.628 45.3208 178.032 45.3208C177.918 45.3128 177.807 45.2771 177.71 45.2168C177.613 45.1565 177.533 45.0735 177.475 44.9748C176.941 44.1873 176.394 43.4129 175.87 42.6188C175.791 42.4725 175.671 42.3526 175.525 42.2741C175.378 42.1956 175.212 42.1619 175.046 42.1773C174.74 42.1938 174.433 42.1773 174.127 42.1773C173.699 42.1773 173.613 42.2662 173.61 42.6715C173.61 43.2581 173.61 43.8446 173.61 44.4311C173.61 44.5498 173.61 44.6684 173.61 44.7837C173.577 45.1989 173.442 45.3241 173.003 45.334C172.621 45.334 172.239 45.334 171.853 45.334C171.468 45.334 171.359 45.1956 171.32 44.8562C171.31 44.6806 171.31 44.5046 171.32 44.329C171.32 43.7886 171.32 43.2449 171.32 42.7012L171.297 41.0899ZM175.109 40.5561C175.399 40.5561 175.692 40.5759 175.982 40.5561C176.254 40.5378 176.523 40.4858 176.783 40.4012C176.899 40.3724 177.007 40.3156 177.096 40.2357C177.186 40.1558 177.254 40.0553 177.296 39.9428C177.337 39.8304 177.351 39.7095 177.335 39.5907C177.319 39.4718 177.274 39.3587 177.205 39.2611C177.119 39.1006 176.992 38.9657 176.836 38.8702C176.681 38.7747 176.504 38.722 176.322 38.7174C175.541 38.6943 174.76 38.6976 173.982 38.7174C173.679 38.7174 173.613 38.7965 173.606 39.0964C173.606 39.4489 173.606 39.7982 173.606 40.1508C173.606 40.5034 173.702 40.5594 174.055 40.5693C174.407 40.5791 174.756 40.5561 175.109 40.5561Z" fill="#71BF44"/>
<path d="M114.993 37.014H117.659C117.797 37.014 117.935 37.014 118.071 37.014C118.116 37.0104 118.162 37.0162 118.205 37.0311C118.248 37.046 118.287 37.0697 118.321 37.1007C118.354 37.1317 118.381 37.1692 118.399 37.211C118.417 37.2528 118.427 37.298 118.426 37.3435C118.426 37.65 118.426 37.9597 118.426 38.2662C118.407 38.5199 118.288 38.6155 118.011 38.655C117.859 38.665 117.706 38.665 117.553 38.655H113.688C113.505 38.6361 113.32 38.6609 113.148 38.7274C112.976 38.7938 112.822 38.9 112.699 39.0372C112.631 39.1136 112.584 39.2058 112.561 39.3053C112.538 39.4049 112.54 39.5087 112.568 39.6072C112.595 39.7056 112.647 39.7956 112.718 39.8687C112.79 39.9419 112.879 39.9959 112.976 40.0258C113.309 40.1363 113.655 40.2017 114.004 40.2202C114.663 40.2498 115.289 40.2202 115.932 40.2202C116.36 40.2162 116.787 40.256 117.207 40.3388C117.546 40.4158 117.861 40.5714 118.129 40.7929C118.396 41.0144 118.607 41.2957 118.746 41.614C118.897 41.9347 118.975 42.2846 118.975 42.6388C118.975 42.993 118.897 43.3429 118.746 43.6636C118.609 43.9811 118.409 44.2672 118.157 44.5041C117.906 44.741 117.608 44.9237 117.283 45.0409C116.838 45.2019 116.366 45.2757 115.892 45.2584C114.284 45.2584 112.676 45.2584 111.068 45.2584C110.947 45.2584 110.825 45.2584 110.699 45.2584C110.284 45.2353 110.149 45.1167 110.126 44.7279C110.111 44.4788 110.111 44.229 110.126 43.9799C110.146 43.6504 110.304 43.4823 110.663 43.4395C110.816 43.4296 110.969 43.4296 111.121 43.4395C112.499 43.4395 113.879 43.4395 115.257 43.4395C115.365 43.456 115.476 43.4484 115.581 43.4172C115.687 43.386 115.784 43.332 115.866 43.2591C115.948 43.1861 116.013 43.0959 116.056 42.995C116.1 42.8941 116.12 42.7848 116.117 42.675C116.138 42.5226 116.099 42.3678 116.007 42.2444C115.915 42.1209 115.778 42.0388 115.626 42.016C115.342 41.9546 115.053 41.9226 114.762 41.9205C113.948 41.9205 113.134 41.9534 112.327 41.9205C111.299 41.8611 110.423 41.4723 109.889 40.5826C109.755 40.3239 109.673 40.0421 109.645 39.7523C109.585 39.2633 109.68 38.7678 109.916 38.3357C110.153 37.9035 110.519 37.5565 110.963 37.3435C111.395 37.1116 111.877 36.9894 112.367 36.9877C113.24 37.0074 114.113 36.9877 114.986 36.9877L114.993 37.014Z" fill="#71BF44"/>
<path d="M48.8172 7.13722C48.7876 7.18994 48.781 7.213 48.7711 7.2163C48.1121 7.2822 47.5684 7.72045 46.8896 7.67432C46.8133 7.66401 46.7356 7.67077 46.6622 7.69409C46.1781 7.87785 45.6754 8.00823 45.1629 8.08291C44.5369 8.21472 43.924 8.41243 43.3078 8.57388C42.3193 8.84738 41.3307 9.12087 40.362 9.40096C39.9797 9.5086 39.6008 9.61844 39.2252 9.73047C38.2004 10.06 37.1657 10.3895 36.1541 10.7618C34.9745 11.2001 33.8179 11.7009 32.6448 12.1656C30.8325 12.8806 29.0861 13.7307 27.3726 14.6105C25.847 15.3849 24.3675 16.2416 22.8682 17.0687C22.6178 17.2071 22.3805 17.3685 22.1433 17.53C21.9983 17.6289 21.85 17.7277 21.6952 17.5827C21.5403 17.4377 21.6391 17.2862 21.7314 17.1445C22.3904 16.1559 23.0297 15.1279 23.7085 14.1262C25.5065 11.4408 27.4883 8.88313 29.6397 6.4716C30.7765 5.18981 31.9726 3.95084 33.1589 2.70859C33.8179 2.00673 34.5296 1.32793 35.2282 0.649142C35.3435 0.537108 35.4424 0.349286 35.7225 0.431664C35.7017 0.525745 35.6685 0.616621 35.6236 0.701863C35.3204 1.08739 35.0239 1.48281 34.6944 1.84527C33.2874 3.41374 31.9265 5.01517 30.6513 6.68249C29.3332 8.41902 28.035 10.1852 26.8553 12.0206C26.6016 12.4193 26.3314 12.8081 26.0777 13.2101C26.0157 13.3274 25.9639 13.4498 25.9228 13.5759C26.0418 13.5852 26.1614 13.5785 26.2787 13.5561C27.0168 13.2266 27.745 12.8971 28.4831 12.5676C29.1421 12.2809 29.8308 12.0173 30.5096 11.7471C31.1159 11.5065 31.7222 11.2627 32.3351 11.0386C33.1061 10.7585 33.8838 10.4949 34.6417 10.2313C35.1293 10.0633 35.6302 9.90182 36.1146 9.74365C36.5495 9.60526 36.9878 9.47675 37.4326 9.34824C38.0455 9.1703 38.6584 8.99236 39.2746 8.82432C39.7458 8.6991 40.2203 8.59036 40.6948 8.47174C41.0506 8.38277 41.4032 8.28062 41.7591 8.20483C42.4774 8.05655 43.1991 7.92145 43.9141 7.77647C44.7214 7.60842 45.5188 7.39753 46.3294 7.27561C47.0214 7.17017 47.7167 7.09768 48.402 6.9461C48.4826 6.92842 48.5668 6.93752 48.6417 6.97202C48.7166 7.00651 48.7783 7.06451 48.8172 7.13722Z" fill="#71BF44"/>
<path d="M124.657 37.0143C125.411 36.9749 126.166 37.0663 126.888 37.2845C127.406 37.4149 127.876 37.6873 128.247 38.071C128.618 38.4547 128.874 38.9344 128.987 39.456C129.102 39.9542 129.183 40.4595 129.231 40.9684C129.253 41.2748 129.235 41.5826 129.178 41.8845C129.112 42.6668 128.811 43.4108 128.315 44.0197C127.806 44.6056 127.105 44.9911 126.338 45.1071C125.845 45.2069 125.347 45.2752 124.845 45.3114C124.096 45.3222 123.349 45.2302 122.624 45.0379C122.158 44.9415 121.722 44.736 121.351 44.4381C120.979 44.1403 120.684 43.7586 120.489 43.3244C120.039 42.3158 119.907 41.194 120.11 40.1084C120.257 39.2269 120.727 38.4317 121.428 37.8776C121.566 37.7613 121.716 37.6607 121.876 37.5778C122.734 37.1383 123.696 36.9434 124.657 37.0143ZM124.585 38.6816C124.432 38.6788 124.279 38.6876 124.127 38.708C123.79 38.7527 123.472 38.8869 123.204 39.0967C122.937 39.3065 122.731 39.5842 122.608 39.9008C122.394 40.4358 122.321 41.0168 122.397 41.5879C122.476 42.1646 122.578 42.7379 123.096 43.1564C123.375 43.3372 123.689 43.4583 124.018 43.5123C124.613 43.6807 125.249 43.628 125.807 43.364C125.982 43.2949 126.141 43.1892 126.271 43.0539C126.402 42.9186 126.502 42.757 126.565 42.5797C126.681 42.2459 126.773 41.9046 126.842 41.5582C126.954 40.8971 126.822 40.2178 126.47 39.6471C126.278 39.3264 125.999 39.0668 125.665 38.8982C125.332 38.7297 124.957 38.6591 124.585 38.6948V38.6816Z" fill="#71BF44"/>
<path d="M186.128 40.273C186.817 40.273 187.505 40.273 188.197 40.273C188.751 40.273 188.856 40.3883 188.856 40.932C188.869 41.1515 188.869 41.3715 188.856 41.591C188.827 41.8876 188.698 42.0029 188.392 42.0359C188.253 42.0441 188.115 42.0441 187.976 42.0359H184.068C183.409 42.0359 183.34 42.1611 183.65 42.6949C183.82 42.9835 184.065 43.2207 184.36 43.3814C184.654 43.5421 184.986 43.6202 185.321 43.6076C186.223 43.6274 187.13 43.6076 188.032 43.6076C188.171 43.5993 188.309 43.5993 188.448 43.6076C188.708 43.6439 188.836 43.7559 188.856 44.0063C188.881 44.2837 188.881 44.5627 188.856 44.84C188.827 45.153 188.678 45.2618 188.339 45.2881C188.28 45.2881 188.217 45.2881 188.158 45.2881C186.932 45.2881 185.703 45.331 184.477 45.2881C183.159 45.2321 182.039 44.7543 181.399 43.601C180.778 42.6029 180.575 41.3998 180.836 40.2532C180.951 39.6143 181.207 39.0089 181.584 38.4804C182.029 37.9056 182.634 37.4756 183.324 37.2448C183.802 37.0883 184.303 37.0104 184.807 37.0141C185.94 37.0141 187.075 37.0141 188.21 37.0141C188.774 37.0141 188.869 37.1162 188.869 37.6731C188.869 37.8511 188.869 38.0257 188.869 38.2036C188.853 38.5892 188.741 38.6946 188.346 38.7177C188.237 38.7177 188.131 38.7177 188.016 38.7177H185.578C185.149 38.7081 184.724 38.7972 184.335 38.978C183.953 39.1611 183.66 39.4881 183.518 39.8874C183.423 40.1346 183.495 40.24 183.775 40.2697C183.885 40.2765 183.995 40.2765 184.105 40.2697L186.128 40.273Z" fill="#71BF44"/>
<path d="M25.5505 59.7667C25.1749 59.7239 25.053 59.4372 24.8915 59.2263C24.3676 58.5673 23.8667 57.8786 23.3823 57.1866C22.6871 56.1981 21.9885 55.1898 21.3328 54.1683C20.6057 53.0348 19.9038 51.8848 19.2272 50.7183C18.7099 49.8253 18.2387 48.906 17.7708 47.9867C17.3029 47.0673 16.7987 46.0689 16.344 45.0936C15.9585 44.2665 15.6059 43.4262 15.2599 42.5827C14.9304 41.8215 14.6602 41.0505 14.357 40.2761C14.3104 40.1864 14.2587 40.0995 14.2022 40.0158C14.0471 40.3974 13.9312 40.7937 13.8562 41.1987C13.6552 42.0983 13.4641 43.0012 13.2927 43.9073C13.1214 44.8135 12.9961 45.6702 12.8512 46.5434C12.8512 46.6159 12.8512 46.6917 12.8347 46.7642C12.6666 47.9372 12.5052 49.1103 12.3371 50.2867C12.2613 50.8831 12.2482 51.4828 12.1921 52.0825C12.1361 52.6196 12.057 53.1534 11.9911 53.6905C11.9582 53.964 11.9252 54.2408 11.9022 54.5143C11.9167 54.7403 11.8488 54.9639 11.7111 55.1437C11.6256 55.0949 11.5572 55.021 11.5153 54.9319C11.4735 54.8428 11.4601 54.743 11.4771 54.6461C11.4771 53.7795 11.4771 52.9162 11.5068 52.0528C11.5364 51.1895 11.5792 50.3262 11.6386 49.4662C11.7308 48.0789 11.8198 46.6917 11.9516 45.3077C12.0702 44.0688 12.2482 42.8397 12.3997 41.604C12.3997 41.5447 12.3997 41.4854 12.4228 41.4294C12.6073 40.4969 12.7951 39.5611 12.9797 38.6286C13.0983 38.0256 13.2136 37.4225 13.3355 36.8195C13.4575 36.2165 13.5827 35.6135 13.7112 35.0138C13.7166 34.9394 13.7416 34.8678 13.7837 34.8062C13.8595 34.7239 13.9616 34.6151 14.0539 34.6118C14.11 34.6198 14.1635 34.641 14.2099 34.6737C14.2563 34.7063 14.2943 34.7495 14.3208 34.7996C14.386 34.9782 14.4346 35.1624 14.4658 35.3499C14.6173 35.9595 14.7623 36.5691 14.9304 37.1754C15.0754 37.7125 15.2368 38.2463 15.4049 38.7801C15.5729 39.3139 15.7344 39.8379 15.9189 40.3684C16.0573 40.7869 16.1924 41.2053 16.3341 41.6205C16.4758 42.0357 16.6405 42.5069 16.8053 42.9386C16.9701 43.3702 17.1348 43.7623 17.293 44.1676C17.695 45.1331 18.0937 46.0953 18.5089 47.0542C18.8582 47.8648 19.2173 48.6721 19.5996 49.4695C19.9291 50.1285 20.2586 50.7875 20.6243 51.4301C21.0988 52.2956 21.5843 53.1567 22.0808 54.0134C22.4465 54.6395 22.8189 55.259 23.2077 55.8719C23.8898 56.9461 24.5884 58.0104 25.2704 59.0846C25.3891 59.2955 25.6296 59.4405 25.5505 59.7667Z" fill="#71BF44"/>
<path d="M166.146 43.4689C165.817 43.4689 165.468 43.4953 165.135 43.4689C164.978 43.4427 164.816 43.4742 164.68 43.5578C164.545 43.6415 164.444 43.7714 164.397 43.9237C164.268 44.2367 164.123 44.5431 164.001 44.8595C163.954 45.0042 163.859 45.1282 163.731 45.2104C163.603 45.2927 163.45 45.3282 163.299 45.3109C162.884 45.3109 162.472 45.3109 162.057 45.3109C161.642 45.3109 161.484 45.0835 161.645 44.7013C161.859 44.1873 162.093 43.6798 162.304 43.1658C162.703 42.23 163.088 41.2909 163.49 40.3584C163.751 39.7521 164.028 39.1523 164.295 38.546C164.446 38.1968 164.624 37.8475 164.729 37.4883C164.755 37.3511 164.829 37.2276 164.938 37.1405C165.046 37.0533 165.183 37.0083 165.323 37.0138C165.827 37.0138 166.334 37.0138 166.838 37.0138C166.951 37.0088 167.063 37.0374 167.159 37.0961C167.255 37.1548 167.332 37.2409 167.379 37.3433C167.708 38.1243 168.061 38.9085 168.403 39.6862C168.647 40.2397 168.901 40.7867 169.145 41.3337L170.021 43.3108C170.166 43.6403 170.315 43.9533 170.46 44.2762C170.493 44.3421 170.532 44.4048 170.562 44.4707C170.855 45.1297 170.756 45.2747 170.008 45.2747C169.679 45.2747 169.333 45.2747 168.997 45.2747C168.829 45.2958 168.66 45.2534 168.522 45.1558C168.384 45.0582 168.288 44.9125 168.252 44.7474C168.127 44.4179 167.998 44.0884 167.88 43.7589C167.847 43.655 167.78 43.5654 167.69 43.5053C167.599 43.4453 167.49 43.4185 167.382 43.4294C166.97 43.4294 166.555 43.4294 166.143 43.4294L166.146 43.4689ZM166.146 39.8081C166.031 39.9366 165.939 39.9959 165.906 40.0783C165.738 40.5132 165.576 40.9515 165.431 41.3963C165.404 41.5043 165.386 41.6146 165.379 41.7258C165.772 41.8025 166.175 41.8224 166.575 41.7851C166.865 41.7851 166.937 41.6467 166.832 41.3798C166.749 41.1624 166.67 40.9416 166.578 40.7208C166.459 40.4308 166.311 40.1508 166.156 39.8081H166.146Z" fill="#71BF44"/>
<path d="M94.1086 37.0138H97.5092C97.6463 37.0055 97.7839 37.0055 97.9211 37.0138C98.2176 37.05 98.3428 37.1555 98.3494 37.4355C98.3494 37.9463 98.3692 38.4603 98.3494 38.9744C98.3296 39.3599 98.1781 39.4851 97.7629 39.495C97.2126 39.495 96.6623 39.495 96.1153 39.495C95.6738 39.495 95.6145 39.5477 95.6112 39.9827C95.6112 41.4753 95.6112 42.9713 95.6112 44.464C95.6163 44.6403 95.6063 44.8167 95.5815 44.9912C95.5387 45.2581 95.4398 45.3504 95.1564 45.357C94.4645 45.357 93.7758 45.357 93.0871 45.357C92.7181 45.357 92.6126 45.2285 92.5896 44.8627C92.5896 44.7309 92.5896 44.5991 92.5896 44.4673V40.3089C92.5896 40.1771 92.5896 40.0453 92.5896 39.9135C92.5632 39.6136 92.4775 39.5246 92.1612 39.5181C91.6241 39.5181 91.0903 39.5181 90.5532 39.5181C90.0952 39.5181 89.9403 39.3928 89.9271 38.9546C89.9139 38.5163 89.9271 38.0155 89.9271 37.5476C89.9271 37.0797 90.0293 37.0204 90.5136 37.0138C91.1727 37.0138 91.8317 37.0138 92.4907 37.0138H94.1086Z" fill="#0085CD"/>
<path d="M135.696 40.3619H137.95C138.517 40.3619 138.626 40.4674 138.635 40.9979C138.649 41.1734 138.649 41.3496 138.635 41.5251C138.596 41.8843 138.451 42.0128 138.075 42.0358C137.953 42.0358 137.831 42.0358 137.71 42.0358H133.564C133.472 42.0358 133.38 42.0358 133.288 42.0358C132.958 42.0589 132.882 42.1248 132.879 42.4411C132.879 43.1002 132.879 43.7592 132.879 44.4182C132.879 44.55 132.879 44.6818 132.879 44.8136C132.846 45.1431 132.721 45.2848 132.358 45.298C131.93 45.298 131.502 45.298 131.073 45.298C130.645 45.298 130.506 45.1365 130.48 44.7246C130.48 44.6225 130.48 44.5204 130.48 44.4182C130.48 43.288 130.5 42.1611 130.48 41.0341C130.476 40.4174 130.562 39.8034 130.737 39.2119C130.842 38.8674 131.018 38.5486 131.253 38.2762C131.489 38.0037 131.779 37.7837 132.105 37.6303C132.796 37.2652 133.563 37.0656 134.345 37.047C135.568 37.0042 136.794 37.0174 138.019 37.0174C138.527 37.0174 138.645 37.1294 138.655 37.6105C138.66 37.8442 138.644 38.0779 138.609 38.3091C138.596 38.4156 138.543 38.5134 138.462 38.5829C138.38 38.6525 138.275 38.6888 138.168 38.6847C138.046 38.6847 137.924 38.6847 137.802 38.6847C136.836 38.6847 135.871 38.6847 134.905 38.6847C134.462 38.6748 134.024 38.7768 133.63 38.9813C133.159 39.2284 133.044 39.6732 132.932 40.1115C132.915 40.1675 133.027 40.2993 133.103 40.3257C133.237 40.3557 133.375 40.3657 133.512 40.3553H135.716L135.696 40.3619Z" fill="#71BF44"/>
<path d="M143.433 37.0138H146.787C146.923 37.0138 147.064 37.0138 147.199 37.0138C147.493 37.0501 147.611 37.1522 147.638 37.4323C147.656 37.6516 147.656 37.872 147.638 38.0913C147.615 38.5098 147.456 38.6647 147.005 38.6746C146.455 38.6746 145.901 38.6746 145.357 38.6746C144.55 38.6746 144.524 38.579 144.527 39.4588C144.527 41.1064 144.527 42.7539 144.527 44.4245C144.527 44.5267 144.527 44.6288 144.527 44.731C144.497 45.1528 144.375 45.2747 143.931 45.2846C143.578 45.2846 143.225 45.2846 142.876 45.2846C142.402 45.2846 142.247 45.1231 142.24 44.6618C142.24 43.8413 142.24 43.0142 142.24 42.2003C142.24 41.2118 142.24 40.2068 142.24 39.2117C142.24 38.7306 142.181 38.6746 141.69 38.6746C141.093 38.6746 140.494 38.6746 139.897 38.6746C139.403 38.6746 139.301 38.5724 139.288 38.1111C139.288 37.8607 139.288 37.6102 139.288 37.3631C139.283 37.3133 139.289 37.2629 139.306 37.2159C139.324 37.1689 139.352 37.1264 139.388 37.0918C139.424 37.0572 139.468 37.0313 139.515 37.016C139.563 37.0008 139.614 36.9967 139.663 37.0039C139.848 37.0039 140.032 37.0039 140.214 37.0039L143.433 37.0138Z" fill="#71BF44"/>
<path d="M7.559 51.763C7.47764 51.685 7.41494 51.5898 7.37557 51.4842C7.3362 51.3786 7.32118 51.2656 7.33164 51.1534C7.33164 49.3806 7.29539 47.6078 7.30198 45.8351C7.30198 44.8828 7.3547 43.9305 7.40413 42.9815C7.43049 42.5301 7.51946 42.0819 7.5623 41.6305C7.60843 41.1066 7.63149 40.5794 7.68092 40.0522C7.70728 39.7457 7.7633 39.4426 7.80614 39.1394C7.85556 38.7605 7.8984 38.3815 7.95441 38.0059C8.01043 37.6302 8.05986 37.281 8.13565 36.9251C8.24429 36.5671 8.26129 36.1875 8.18507 35.8212C8.05911 35.8693 7.93686 35.9266 7.81931 35.9926C6.65944 36.8032 5.51274 37.6171 4.33968 38.4375C3.46098 39.0636 2.58228 39.6952 1.70359 40.3322C1.49826 40.4984 1.24276 40.5901 0.978663 40.5925C0.977049 40.5012 0.998193 40.4109 1.04019 40.3298C1.08218 40.2487 1.1437 40.1793 1.21921 40.1279C2.03639 39.3767 2.86676 38.632 3.68065 37.884L4.40558 37.2249C5.74339 35.986 7.0867 34.7624 8.4355 33.5542C8.89462 33.1456 9.36033 32.7447 9.83263 32.3515C9.88002 32.3102 9.93578 32.2797 9.99607 32.2621C10.0564 32.2445 10.1198 32.2401 10.1819 32.2493C10.2709 32.2889 10.3005 32.4569 10.3335 32.5788C10.3391 32.6376 10.3289 32.6968 10.3038 32.7502L9.79309 34.5658C9.76014 34.691 9.73707 34.8228 9.70741 34.9513C9.63822 35.2808 9.56572 35.5807 9.49323 35.8937C9.46687 36.009 9.43063 36.1211 9.40756 36.2232C9.20326 37.2414 8.9726 38.2596 8.80126 39.2844C8.62003 40.3817 8.5047 41.4888 8.33994 42.5795C8.17519 43.6702 8.15871 44.7708 8.01043 45.8548C7.77648 47.565 7.82591 49.2752 7.7633 50.9853C7.79313 51.2608 7.7204 51.5377 7.559 51.763Z" fill="#71BF44"/>
<path d="M160.021 9.96131C160.601 9.96131 161.184 9.96131 161.767 9.96131C162.35 9.96131 162.469 10.1063 162.472 10.65C162.472 11.6319 162.472 12.6139 162.472 13.5958C162.472 14.1527 162.304 14.3109 161.734 14.3142C160.601 14.3142 159.467 14.3142 158.33 14.3142C158.239 14.3141 158.147 14.3075 158.057 14.2944C157.661 14.2384 157.523 14.1 157.51 13.7177C157.51 13.4113 157.51 13.1016 157.51 12.7951C157.51 12.09 157.51 11.3881 157.51 10.6829C157.51 10.0964 157.651 9.96461 158.274 9.95801C158.897 9.95142 159.437 9.96131 160.021 9.96131Z" fill="#0085CD"/>
<path d="M3.05802 17.7905C3.18636 17.6868 3.33799 17.6158 3.49986 17.5836C3.66174 17.5515 3.829 17.5591 3.98724 17.606C4.78137 17.7543 5.5689 17.9355 6.36631 18.0805C7.16373 18.2255 7.9908 18.3474 8.8047 18.4858C9.13421 18.5451 9.49338 18.6143 9.83607 18.6934C10.3468 18.8087 10.4457 18.7395 10.4588 18.2584C10.4885 17.0722 10.5116 15.886 10.5577 14.703C10.5577 14.2944 10.6631 13.8891 10.6994 13.4805C10.7686 12.6502 10.818 11.833 10.8872 10.9861C10.9762 9.96793 11.0816 8.94974 11.1772 7.93155C11.1969 7.75362 11.1969 7.75362 11.3584 7.5592C11.533 7.6284 11.5331 7.78657 11.5429 7.92496C11.5759 8.52467 11.6286 9.12438 11.6253 9.72409C11.6253 11.8165 11.5726 13.9122 11.5759 16.0046C11.5759 16.9931 11.6649 17.9619 11.7209 18.9405C11.7472 19.4051 11.7934 19.873 11.8263 20.3376C11.8345 20.4253 11.8345 20.5136 11.8263 20.6013C11.7835 20.9308 11.599 21.056 11.253 20.9308C10.1326 20.5024 9.01888 20.0609 7.89854 19.6391C6.97261 19.2898 6.0401 18.9801 5.11417 18.6242C4.6891 18.466 4.27062 18.2947 3.84555 18.12C3.73352 18.0772 3.60831 18.064 3.49957 18.0179C3.39083 17.9718 3.24914 17.9026 3.05802 17.7905Z" fill="#71BF44"/>
<path d="M0 35.0695C0.0585859 34.9555 0.124632 34.8454 0.197707 34.74C0.599711 34.2589 1.00171 33.7779 1.4169 33.31C2.75691 31.7876 4.10461 30.2697 5.46 28.7561C5.91802 28.2454 6.41229 27.7676 6.89337 27.27C7.20641 26.9405 7.20641 26.8219 6.85383 26.5616L2.16818 23.0984C1.91446 22.9106 1.64756 22.7359 1.40372 22.5382C1.34111 22.4888 1.29168 22.3339 1.32464 22.2878C1.36083 22.2538 1.40422 22.2285 1.45158 22.2137C1.49894 22.1988 1.54903 22.1949 1.59813 22.2021C1.84128 22.2873 2.07803 22.3897 2.30658 22.5086C3.59167 23.1676 4.87017 23.8266 6.15856 24.4626C6.68578 24.7262 7.23607 24.9535 7.76658 25.2106C8.29709 25.4676 8.84738 25.7609 9.38448 26.0376C9.75024 26.2288 9.77989 26.4331 9.47015 26.7164C9.16041 26.9998 8.81113 27.2865 8.48162 27.5732C7.9577 28.0246 7.42389 28.4628 6.91973 28.934C4.86359 30.8606 2.81183 32.7937 0.764466 34.7334C0.648274 34.8519 0.523848 34.962 0.392118 35.063C0.296606 35.1162 0.19475 35.1572 0.0889682 35.1849L0 35.0695Z" fill="#71BF44"/>
</svg>
