<svg width="78" height="78" viewBox="0 0 78 78" fill="none" xmlns="http://www.w3.org/2000/svg">
<circle cx="39" cy="39" r="39" fill="#52B788"/>
<path d="M57.6523 30.2656C58.1428 30.743 59.0125 33.3195 59.2349 34.0781C65.3362 54.9127 40.7479 71.209 24.1115 57.4566C6.49431 42.8802 19.8609 14.4532 42.3239 18.7039C43.7037 18.9654 46.993 19.8875 48.072 20.6918C48.9222 21.3262 48.5363 22.7518 47.4181 22.7845C46.8884 22.7975 45.0574 21.8559 44.3642 21.627C30.3763 17.0101 16.4408 28.6896 18.5399 43.2594C20.371 55.9656 33.9599 63.6298 45.8421 58.5552C55.2327 54.54 60.0654 43.9395 56.8545 34.1762C56.5733 33.3326 55.9259 32.234 55.7232 31.4819C55.4028 30.2656 56.8153 29.4547 57.6523 30.2721V30.2656Z" fill="white"/>
<path d="M37.1316 25.2962C39.5642 25.1393 42.1342 25.6101 44.3511 26.6172C44.7173 26.7807 45.6459 27.2057 45.8944 27.4608C46.6268 28.2128 46.0317 29.5011 45.0378 29.4749C44.5342 29.4618 42.9124 28.5071 42.2193 28.2717C30.1344 24.2434 20.2075 38.3816 28.081 48.3281C36.203 58.5819 52.8524 51.2512 50.6878 38.2378C50.3805 36.374 49.7004 35.537 49.1445 33.9544C48.6671 32.6008 50.0273 31.731 50.9625 32.5223C51.6491 33.1108 52.6824 36.2498 52.872 37.2045C55.5793 50.5057 40.9048 60.498 29.6374 52.8926C17.7683 44.8818 22.8298 26.2052 37.1381 25.2962H37.1316Z" fill="white"/>
<path d="M56.1286 16.0232C58.0774 15.6897 57.6785 19.0444 58.2082 20.2019C59.5357 20.8689 63.2893 20.3065 62.2692 22.7327L56.8938 28.0558C55.9521 28.435 53.6829 27.4018 52.6235 27.5064L38.9626 41.1673C37.7332 42.1744 36.2814 40.8534 37.2427 39.539L50.9494 25.8323C51.054 24.773 50.0143 22.5038 50.4001 21.5621L55.6709 16.2325C55.7951 16.1213 55.9652 16.0494 56.1286 16.0167V16.0232Z" fill="white"/>
<path d="M37.3212 32.2673C38.4133 32.1758 40.7217 32.0973 40.3751 33.791C40.1266 35.0008 38.7468 34.5169 37.9686 34.5234C32.8482 34.5823 30.3632 41.089 34.0973 44.6073C37.8313 48.1255 43.926 45.4116 43.9457 40.4024C43.9457 39.585 43.4617 38.1855 44.8416 38.0613C46.5614 37.9043 46.2999 40.7163 46.1037 41.8149C44.9266 48.5178 36.3272 50.859 31.9 45.6601C27.4728 40.4612 30.821 32.8363 37.3212 32.2739V32.2673Z" fill="white"/>
</svg>
