<svg width="78" height="78" viewBox="0 0 78 78" fill="none" xmlns="http://www.w3.org/2000/svg">
<circle cx="39" cy="39" r="39" fill="#52B788"/>
<path d="M14.0026 37.4564C14.1941 37.1997 14.0704 36.8401 14.1003 36.5287C14.5433 31.9499 16.3454 27.5302 19.0843 23.8727H16.6894C16.576 23.8727 16.1304 23.6668 16.004 23.5809C14.8652 22.8004 15.3056 21.07 16.6842 20.9371C18.1005 20.8003 21.1365 20.8042 22.5567 20.9371C23.2239 20.9996 23.6043 21.4231 23.7894 22.0498C24.1386 23.2395 24.6454 26.2038 24.7379 27.452C24.8304 28.7003 24.2741 29.5577 22.9476 29.3401C21.4857 29.099 21.8687 26.7198 21.3788 25.7321C17.1246 31.3232 15.8489 38.7033 17.8842 45.4476C18.2569 46.6841 19.5599 48.6777 17.978 49.4973C16.5343 50.2452 15.9362 48.7416 15.5375 47.6966C14.7232 45.5623 14.1329 42.8455 14 40.5849V37.4577L14.0026 37.4564Z" fill="white"/>
<path d="M40.4858 14.0026L41.5113 14.1016C46.0913 14.542 50.511 16.3493 54.1672 19.0843V16.6894C54.1672 16.576 54.3731 16.1304 54.4591 16.004C55.2396 14.8652 56.97 15.3056 57.1029 16.6842C57.2397 18.1005 57.2358 21.1365 57.1029 22.5567C57.0442 23.1835 56.6559 23.5744 56.0683 23.7698C55.0142 24.1203 51.7424 24.6519 50.5879 24.7379C49.4335 24.8239 48.4758 24.2728 48.6999 22.9476C48.9436 21.5052 51.3384 21.8544 52.3079 21.3788C46.735 17.122 39.3236 15.8529 32.5923 17.8842C31.3558 18.2569 29.3622 19.5599 28.5427 17.978C27.7947 16.5343 29.2984 15.9362 30.3434 15.5375C32.4777 14.7232 35.1944 14.1329 37.4551 14H40.4845L40.4858 14.0026Z" fill="white"/>
<path d="M64.0374 40.4858C63.8758 41.7093 63.7534 42.968 63.5006 44.2006C62.7579 47.8216 61.1461 51.2146 58.9558 54.1671H61.3507C61.464 54.1671 61.9096 54.373 62.036 54.459C63.1748 55.2395 62.7344 56.9699 61.3559 57.1028C59.9395 57.2396 56.9036 57.2357 55.4833 57.1028C54.8162 57.0402 54.4357 56.6168 54.2507 55.99C53.9002 54.8004 53.3946 51.8361 53.3021 50.5878C53.2122 49.3813 53.8454 48.4131 55.1745 48.7154C56.5035 49.0177 56.1765 51.341 56.6612 52.3091C60.9115 46.7049 62.1872 39.3483 60.1558 32.5936C59.7845 31.357 58.4789 29.3648 60.062 28.5439C61.5057 27.796 62.1038 29.2996 62.5025 30.3446C63.3169 32.4789 63.9071 35.1956 64.04 37.4563V40.4858H64.0374Z" fill="white"/>
<path d="M37.5541 64.0376C36.3306 63.876 35.0719 63.7536 33.8393 63.5008C30.2183 62.7581 26.8227 61.1502 23.8727 58.956V61.3509C23.8727 61.4642 23.6668 61.9098 23.5809 62.0362C22.8004 63.175 21.07 62.7346 20.9371 61.3561C20.8003 59.9397 20.8042 56.9038 20.9371 55.4835C20.9996 54.8164 21.4231 54.4359 22.0498 54.2509C23.2864 53.8873 26.1399 53.4209 27.452 53.301C28.6703 53.1902 29.6254 53.8535 29.3257 55.1734C29.026 56.4933 26.7002 56.1754 25.7321 56.6601C31.3323 60.9104 38.6955 62.1861 45.4476 60.1547C46.6841 59.7834 48.6764 58.4778 49.4973 60.0609C50.2452 61.5046 48.7416 62.1027 47.6966 62.5014C45.5623 63.3158 42.8455 63.906 40.5849 64.0389H37.5554L37.5541 64.0376Z" fill="white"/>
<path d="M34.6225 28.7588V34.9636C34.6225 35.3272 35.4329 36.0581 35.8499 36.0816C37.8187 35.9461 40.0703 36.2835 42.0052 36.0933C42.3036 36.0633 42.7583 35.9057 42.9799 35.6998C43.0554 35.6294 43.4177 35.0066 43.4177 34.9649V28.7601H48.1579C48.2009 28.7601 48.8225 29.121 48.8928 29.1979C49.0505 29.3673 49.255 29.839 49.2837 30.0774L49.2863 47.871C49.2055 48.6867 48.6856 49.2079 47.8687 49.2887H30.1715C29.3545 49.2079 28.8346 48.688 28.7551 47.871L28.7577 30.0774C28.7864 29.839 28.991 29.3673 29.1486 29.1979C29.219 29.1223 29.8418 28.7601 29.8835 28.7601H34.6238L34.6225 28.7588Z" fill="white"/>
<path d="M40.4859 28.7588H37.5542V33.1564H40.4859V28.7588Z" fill="white"/>
</svg>
