<svg width="78" height="78" viewBox="0 0 78 78" fill="none" xmlns="http://www.w3.org/2000/svg">
<circle cx="39" cy="39" r="39" fill="#52B788"/>
<path d="M60 32.4121V32.5918L55.418 50.3809H29.8125V53.7051H55.7773V56.4004H53.7109C55.2922 60.1067 51.6397 63.9281 47.8483 62.3984C45.5376 61.4664 44.4319 58.6896 45.4453 56.4004H37.9883C38.8747 58.8645 37.7619 61.7491 35.16 62.511C31.3878 63.6154 28.1869 60.0121 29.6328 56.4004H27.1172V48.9877L22.7148 32.4121H60ZM34.3047 36.9043H31.6094V45.5293H34.3047V36.9043ZM39.9648 45.5293V37.0385L39.8307 36.9043H37.3151L37.1809 37.0385V45.5293H39.966H39.9648ZM45.5352 36.9043H42.8398V45.5293H45.5352V36.9043ZM51.1953 36.9043H48.5V45.5293H51.1953V36.9043Z" fill="white"/>
<path d="M14 20.8223L22.4333 20.8342L24.7812 29.7168H22.0404L20.3705 23.526L14 23.5176V20.8223Z" fill="white"/>
<path d="M52.0938 21.7207H43.918V29.7168H52.0938V21.7207Z" fill="white"/>
<path d="M41.2227 24.1465H30.5312V29.7168H41.2227V24.1465Z" fill="white"/>
</svg>
