<svg width="78" height="78" viewBox="0 0 78 78" fill="none" xmlns="http://www.w3.org/2000/svg">
<circle cx="39" cy="39" r="39" fill="#52B788"/>
<path d="M66.655 49.1273V52.648L66.292 52.8684L55.027 52.8597C55.5552 50.8185 55.7901 48.6297 55.6657 46.5143C55.6359 46.0015 55.2344 43.9582 55.3988 43.6839L55.6665 43.5261L64.6262 40.9561L64.9492 40.959C65.9501 43.4329 66.4077 46.2023 66.5437 48.869L66.655 49.1265V49.1273Z" fill="white"/>
<path d="M46.7823 17.0381C47.3141 16.8803 47.8422 17.228 47.7658 17.8012L40.4159 49.6124C38.3361 54.9801 30.3846 52.4377 32.0875 46.7245C36.1328 38.4565 40.0638 30.1282 44.1607 21.8871C44.795 20.612 45.617 18.5846 46.3655 17.4775C46.4703 17.3225 46.5896 17.0956 46.7823 17.0381ZM37.9201 49.6233C39.9343 47.6258 36.8937 44.5502 34.8743 46.5244C32.8368 48.5161 35.924 51.6033 37.9201 49.6233Z" fill="white"/>
<path d="M54.5702 26.7398C54.7615 26.6881 54.8285 26.75 54.9812 26.8234C55.2998 26.9769 56.204 27.7756 56.5212 28.0571C58.9544 30.2183 61.3171 33.1433 62.8695 36.0043C63.0244 36.2902 63.8813 37.9327 63.8784 38.0898C63.877 38.1764 63.8435 38.247 63.7831 38.3066L55.0765 41.8717C54.9849 41.8783 54.9267 41.8274 54.8597 41.7764C54.6604 41.6259 54.0334 39.7113 53.8377 39.2755C52.7669 36.8881 51.1986 34.9102 49.4811 32.9687L54.5702 26.7398Z" fill="white"/>
<path d="M35.1668 22.0014C35.4738 21.9876 35.6418 22 35.7138 22.3542C35.7582 23.8055 35.9946 25.2727 36.0426 26.7195C36.0514 26.9916 36.0994 28.0049 35.9386 28.1177C33.1307 28.1751 30.424 28.6552 27.8278 29.7144C27.4262 29.878 25.356 30.9583 25.2119 30.9437C25.1232 30.935 25.0512 30.9052 24.9981 30.8302L22.7263 27.4441L22.8114 26.9378C25.4054 25.0981 28.2657 23.628 31.3449 22.7769C32.4142 22.4815 34.0873 22.0495 35.1675 22.0014H35.1668Z" fill="white"/>
<path d="M16.0725 41.1628C15.8463 41.3047 13.6982 40.5518 13.5265 40.383C13.261 40.1233 13.5607 39.5392 13.6632 39.2337C14.6365 36.3211 16.7534 32.8927 18.8083 30.6173C19.1321 30.2594 20.0712 29.2352 20.408 29.0097C20.6524 28.846 20.8131 29.001 20.9972 29.1792C21.5078 29.6746 22.3393 30.7242 22.8077 31.3149C22.962 31.5091 23.3824 31.9507 23.3322 32.1442C23.282 32.3377 21.4729 33.7307 21.1543 34.0297C19.0535 36.001 17.2749 38.5521 16.0732 41.1628H16.0725Z" fill="white"/>
<path d="M47.9862 22.9913C48.1528 22.8153 51.9282 24.6622 52.1544 24.9597C52.2053 25.0274 52.2584 25.0834 52.2519 25.1765C51.7776 25.9141 48.3238 31.6259 47.9353 31.6317C47.7775 31.6339 46.3386 30.6366 46.319 30.5187L47.9855 22.992L47.9862 22.9913Z" fill="white"/>
<path d="M13.7316 52.8517C13.4443 52.8336 12.671 52.966 12.5125 52.7572C12.3539 52.5484 12.06 49.7405 12.0353 49.2866C11.9087 46.9385 12.1197 44.319 12.7191 42.0742C12.7802 42.0138 12.85 41.9927 12.9344 41.9883C13.0297 41.9832 14.6737 42.4299 14.7799 42.4881C14.9297 42.5703 14.993 42.5957 15.025 42.7834C15.0861 43.1435 14.55 44.5583 14.4336 45.0726C13.8487 47.6594 13.656 50.201 13.7316 52.8517Z" fill="white"/>
<path d="M42.7583 21.4988L39.7162 27.7962L38.1646 27.6376C37.8794 27.4448 38.1529 25.296 38.1697 24.8567C38.2148 23.6622 38.1995 22.4692 38.3239 21.277C38.5421 20.9627 42.1545 21.3206 42.7575 21.4981L42.7583 21.4988Z" fill="white"/>
</svg>
